<?xml version="1.0" encoding="UTF-8" standalone="no"?>
<svg xmlns="http://www.w3.org/2000/svg" width="9.9689999mm" height="9.9689999mm"
    viewBox="0 0 9.9689999 9.9689999" version="1.1" id="svg5589">
    <defs id="defs5583" />
    <g id="layer1" transform="translate(0,-287.031)">
        <g transform="translate(-29.393563,34.324582)" id="g970">
            <circle r="4.8594141" cy="257.69092" cx="34.378063" id="circle927"
                style="fill:#f4d7d7;fill-opacity:1;stroke:#000000;stroke-width:0.25;stroke-miterlimit:4;stroke-dasharray:none;stroke-dashoffset:14.64999962;stroke-opacity:1" />
            <g transform="translate(19.413803,13.692187)" id="g940">
                <circle id="circle929" cx="13.249275" cy="243.9973" r="1.2492909"
                    style="fill:#ffffff;fill-opacity:1;stroke:#000000;stroke-width:0.25;stroke-miterlimit:4;stroke-dasharray:none;stroke-opacity:1" />
                <circle
                    style="fill:#ffffff;fill-opacity:1;stroke:#000000;stroke-width:0.25;stroke-miterlimit:4;stroke-dasharray:none;stroke-opacity:1"
                    id="circle931" cx="16.753206" cy="243.99625" r="1.248232" />
                <path
                    style="fill:none;stroke:#000000;stroke-width:0.26458299px;stroke-linecap:butt;stroke-linejoin:miter;stroke-opacity:1"
                    d="m 10.102788,244.01719 h 1.897196 v 0" id="path934" />
                <path
                    style="fill:none;stroke:#000000;stroke-width:0.26458299px;stroke-linecap:butt;stroke-linejoin:miter;stroke-opacity:1"
                    d="m 14.500833,244.01719 h 1.00414 v 0" id="path936" />
                <path
                    style="fill:none;stroke:#000000;stroke-width:0.26458299px;stroke-linecap:butt;stroke-linejoin:miter;stroke-opacity:1"
                    d="m 18.001437,244.01719 h 1.806575 v 0" id="path938" />
            </g>
            <path
                d="m 39.238092,257.76095 -0.338997,0.20361 0.06925,0.31057 -0.376204,0.0879 0.10077,0.43202 -0.353984,0.0667 0.07493,0.50953 -0.402558,0.015 -0.02842,0.47077 -0.480589,0.017 -0.377238,0.36019 -0.37724,-0.25684 -0.463021,0.0682 -0.274399,-0.32556 -0.480592,0.10283 -0.360185,-0.30902 -0.377238,0.25735 -0.377238,-0.29146 -0.445968,0.2403 -0.394809,-0.20619 -0.34313,0.32608 -0.463021,-0.0858 -0.274402,0.36019 -0.39429,-0.10284 -0.394808,0.2744 -0.360186,-0.37724 h -0.39429 l -0.03462,-0.42891 -0.463021,-0.10284 -0.01706,-0.41186 -0.428913,-0.11989 0.01705,-0.32607 -0.257871,-0.2315 -0.03358,-0.33436 -0.211873,-0.15606 c 0.05776,2.6419 2.216088,4.75339 4.858617,4.75319 2.656554,1.2e-4 4.820842,-2.13309 4.859134,-4.78937 z"
                style="fill:#e3dedb;fill-opacity:1;stroke:#000000;stroke-width:0.1;stroke-miterlimit:4;stroke-dasharray:none;stroke-dashoffset:14.64999962;stroke-opacity:1"
                id="path942" />
            <path id="path944"
                d="m 33.411915,260.43789 c 0.637073,0.28402 1.301496,0.30822 2.000911,0 v 0"
                style="fill:none;stroke:#000000;stroke-width:0.26458299px;stroke-linecap:butt;stroke-linejoin:miter;stroke-opacity:1" />
            <circle r="0.25140101" cy="257.69055" cx="32.662018" id="circle946"
                style="fill:#000000;fill-opacity:1;stroke:none;stroke-width:0.25;stroke-miterlimit:4;stroke-dasharray:none;stroke-opacity:1" />
            <ellipse ry="0.25140101" rx="0.24701349" cy="257.69055" cx="36.1642" id="ellipse948"
                style="fill:#000000;fill-opacity:1;stroke:none;stroke-width:0.25;stroke-miterlimit:4;stroke-dasharray:none;stroke-opacity:1" />
            <path id="path950"
                d="m 39.056328,257.22949 c -0.01538,-0.0317 -0.04928,-0.10378 -0.07534,-0.16005 -0.02606,-0.0563 -0.05366,-0.11547 -0.06135,-0.13155 -0.01371,-0.0287 -0.01703,-0.0327 -0.177989,-0.21619 -0.09021,-0.10282 -0.164018,-0.18887 -0.164018,-0.19121 0,-0.002 0.0052,-0.0531 0.01161,-0.11268 0.01275,-0.11902 0.01717,-0.17026 0.01751,-0.20307 1.25e-4,-0.0119 8.73e-4,-0.0226 0.0016,-0.0239 7.93e-4,-10e-4 1.77e-4,-0.006 -0.0014,-0.01 -0.0019,-0.005 -0.0089,-0.0102 -0.02268,-0.0166 -0.01095,-0.005 -0.02451,-0.0117 -0.03014,-0.0146 -0.01529,-0.008 -0.04872,-0.0209 -0.133009,-0.0517 -0.09031,-0.033 -0.125873,-0.049 -0.136216,-0.0614 -0.0068,-0.008 -0.0084,-0.0153 -0.01675,-0.0758 -0.0051,-0.0368 -0.01456,-0.11025 -0.02109,-0.16331 -0.0065,-0.053 -0.0128,-0.0974 -0.01392,-0.0985 -0.0036,-0.004 -0.04876,-0.008 -0.162817,-0.0155 -0.117387,-0.008 -0.160596,-0.0121 -0.168569,-0.0163 -0.0102,-0.005 -0.01747,-0.0665 -0.02493,-0.20926 -0.0028,-0.0533 -0.0058,-0.0965 -0.0068,-0.0959 -9.27e-4,5.8e-4 -0.0012,-0.007 -5.03e-4,-0.0178 l 0.0012,-0.0188 -0.02007,-2e-5 c -0.01104,-10e-6 -0.09618,0.003 -0.189203,0.007 -0.09302,0.004 -0.169505,0.007 -0.169964,0.007 -0.0019,-0.002 -0.01055,-0.13074 -0.01358,-0.20088 -0.0037,-0.0867 -0.0051,-0.0947 -0.01657,-0.0994 -0.01389,-0.006 -0.06622,-0.002 -0.174771,0.0142 -0.113698,0.0164 -0.140619,0.018 -0.155231,0.009 -0.01732,-0.0106 -0.01897,-0.0166 -0.03749,-0.13751 -0.01531,-0.0999 -0.02137,-0.13391 -0.02518,-0.14105 -0.0022,-0.004 -0.0065,-0.005 -0.02455,-0.005 -0.012,1.8e-4 -0.02183,0.001 -0.02184,0.002 -1.2e-5,0.001 -0.0069,0.002 -0.01535,0.002 -0.0084,2.5e-4 -0.06728,0.01 -0.130792,0.0211 -0.09449,0.0169 -0.170032,0.0296 -0.176525,0.0296 -0.0028,0 -0.0055,-0.0148 -0.01935,-0.10758 -0.01758,-0.11776 -0.02901,-0.18295 -0.03231,-0.1842 -0.0013,-5.1e-4 -0.0019,-0.002 -0.0012,-0.004 6.88e-4,-0.002 3.9e-5,-0.005 -0.0015,-0.008 -0.0028,-0.004 -0.0026,-0.004 -0.04252,0.004 -0.0032,7.1e-4 -0.01012,0.002 -0.01535,0.003 -0.0052,9.9e-4 -0.0095,0.003 -0.0095,0.005 0,0.002 -0.0013,0.002 -0.0029,9.7e-4 -0.0036,-0.002 -0.03489,0.006 -0.147632,0.0394 -0.111889,0.033 -0.169643,0.049 -0.184268,0.0511 l -0.01159,0.002 -0.0292,-0.0384 c -0.01608,-0.0211 -0.04273,-0.0547 -0.05922,-0.0746 l -0.02998,-0.0362 0.867306,7.4e-4 0.867306,7.3e-4 0.0418,0.0447 c 0.133729,0.14309 0.216686,0.24632 0.344616,0.42884 0.129301,0.18447 0.228681,0.34286 0.304469,0.48526 0.212124,0.39856 0.371569,0.83239 0.463063,1.25993 0.03475,0.16238 0.09607,0.58026 0.08515,0.58026 -0.0015,0 -0.01529,-0.026 -0.03067,-0.0577 z"
                style="fill:none;fill-opacity:1;stroke:none;stroke-width:0.00110486;stroke-miterlimit:4;stroke-dasharray:none;stroke-opacity:1" />
            <path id="path952"
                d="m 31.727314,260.08388 c -0.03981,-0.0369 -0.07049,-0.0701 -0.06817,-0.0739 0.0023,-0.004 -0.02561,-0.0338 -0.06208,-0.0667 -0.03646,-0.0329 -0.06433,-0.0618 -0.06191,-0.0642 0.0024,-0.002 -0.0073,-0.0164 -0.02157,-0.0312 l -0.02596,-0.0268 -0.161786,-9.3e-4 c -0.186539,-0.001 -0.203923,-0.005 -0.204521,-0.0502 -2.11e-4,-0.0158 -0.0029,-0.0343 -0.0059,-0.0411 -0.003,-0.007 -0.0051,-0.0273 -0.0047,-0.0455 0.0013,-0.0547 -0.02178,-0.25103 -0.03051,-0.25975 -0.0045,-0.004 -0.05464,-0.0183 -0.111484,-0.0308 -0.05684,-0.0125 -0.105213,-0.0247 -0.107487,-0.0273 -0.0023,-0.003 -0.0169,-0.006 -0.03251,-0.007 -0.01561,-10e-4 -0.03269,-0.006 -0.03797,-0.0103 -0.0053,-0.004 -0.01195,-0.006 -0.01483,-0.003 -0.0029,0.003 -0.01044,9.3e-4 -0.01679,-0.004 -0.0064,-0.005 -0.01761,-0.007 -0.02501,-0.004 -0.0078,0.003 -0.01345,10e-4 -0.01345,-0.005 0,-0.005 -0.0047,-0.008 -0.01033,-0.006 -0.01023,0.004 -0.05463,-0.0226 -0.06567,-0.0388 -0.0032,-0.005 -0.0019,-0.013 0.0028,-0.0187 0.0059,-0.007 0.0058,-0.0187 -3.17e-4,-0.0375 -0.0049,-0.015 -0.0089,-0.0495 -0.0089,-0.0768 -1.65e-4,-0.19203 -0.0097,-0.25158 -0.03854,-0.24052 -0.0059,0.002 -0.01291,7.4e-4 -0.01548,-0.003 -0.0026,-0.004 -0.01013,-0.005 -0.0168,-0.003 -0.0067,0.003 -0.01214,6.6e-4 -0.01214,-0.004 0,-0.005 -0.0052,-0.007 -0.01157,-0.004 -0.0064,0.002 -0.01392,6.4e-4 -0.0168,-0.004 -0.0029,-0.005 -0.0107,-0.006 -0.01737,-0.004 -0.0067,0.003 -0.01214,3.1e-4 -0.01214,-0.005 0,-0.005 -0.0037,-0.007 -0.0083,-0.005 -0.0045,0.003 -0.01275,0.002 -0.01823,-0.001 -0.0055,-0.003 -0.0211,-0.007 -0.03472,-0.009 -0.01362,-10e-4 -0.02681,-0.005 -0.02931,-0.009 -0.0025,-0.003 -0.01572,-0.007 -0.02936,-0.009 -0.01364,-10e-4 -0.02597,-0.006 -0.02741,-0.01 -0.0014,-0.004 -0.0076,-0.005 -0.01363,-0.003 -0.0061,0.002 -0.01353,2e-4 -0.01657,-0.005 -0.003,-0.005 -0.0087,-0.007 -0.01254,-0.005 -0.0039,0.002 -0.01755,0 -0.03043,-0.005 -0.01289,-0.005 -0.02901,-0.01 -0.03583,-0.0104 -0.01056,-6.6e-4 -0.0124,-0.0239 -0.0124,-0.15628 v -0.1555 l -0.02274,-0.0138 c -0.01251,-0.008 -0.02274,-0.0169 -0.02274,-0.0207 0,-0.004 -0.0037,-0.005 -0.0083,-0.002 -0.0046,0.003 -0.01055,-6.6e-4 -0.01327,-0.008 -0.0027,-0.007 -0.0081,-0.0109 -0.01204,-0.008 -0.0039,0.002 -0.01437,-0.003 -0.02325,-0.0118 -0.0089,-0.009 -0.01823,-0.0141 -0.02078,-0.0115 -0.0025,0.003 -0.007,-0.001 -0.0098,-0.009 -0.0029,-0.007 -0.0081,-0.0117 -0.01173,-0.01 -0.0036,0.002 -0.0088,-0.002 -0.01148,-0.009 -0.0027,-0.007 -0.0083,-0.0108 -0.0124,-0.008 -0.0041,0.003 -0.0097,-0.001 -0.0124,-0.008 -0.0027,-0.007 -0.0087,-0.0106 -0.01327,-0.008 -0.0046,0.003 -0.0083,9.8e-4 -0.0083,-0.004 0,-0.005 -0.0034,-0.007 -0.0075,-0.005 -0.0042,0.003 -0.02322,-0.0104 -0.04237,-0.0288 -0.01915,-0.0184 -0.03682,-0.0315 -0.03925,-0.029 -0.0085,0.009 -0.02456,-0.0248 -0.02965,-0.0616 -0.0039,-0.028 -0.0031,-0.0331 0.0032,-0.0207 0.0064,0.0127 0.0073,0.008 0.0039,-0.0192 -0.0032,-0.0254 -0.0017,-0.0341 0.0049,-0.03 0.0066,0.004 0.0077,-0.002 0.0037,-0.0201 -0.0038,-0.0172 -0.0025,-0.0258 0.0038,-0.0258 0.0057,0 0.0074,-0.007 0.0043,-0.0165 -0.0029,-0.009 -0.0024,-0.021 9.53e-4,-0.0265 0.0034,-0.006 0.0067,-0.0176 0.0074,-0.0269 6.88e-4,-0.009 0.0042,-0.0347 0.0077,-0.0565 0.0059,-0.0359 0.0046,-0.0412 -0.01467,-0.0591 -0.01162,-0.0108 -0.02292,-0.0178 -0.02511,-0.0156 -0.0022,0.002 -0.01029,-0.006 -0.018,-0.0174 -0.0077,-0.0118 -0.01904,-0.0214 -0.02517,-0.0214 -0.0061,0 -0.01492,-0.007 -0.01952,-0.0156 -0.0071,-0.0132 -0.0048,-0.0165 0.01418,-0.0211 0.01239,-0.003 0.339307,-0.008 0.726475,-0.0103 l 0.703942,-0.005 0.0065,0.0445 c 0.0036,0.0245 0.0073,0.0519 0.0081,0.061 8.73e-4,0.009 0.0044,0.0232 0.0078,0.0314 0.0034,0.008 0.0039,0.0171 0.0011,0.0199 -0.0028,0.003 -0.0013,0.01 0.0034,0.0153 0.0047,0.006 0.0078,0.0134 0.0069,0.0173 -9e-4,0.004 0.0027,0.0174 0.0079,0.0301 0.0052,0.0127 0.009,0.0257 0.0083,0.0289 -6.88e-4,0.003 0.0027,0.0152 0.0074,0.0266 0.0048,0.0114 0.0202,0.0504 0.0343,0.0868 0.05739,0.14804 0.16209,0.3093 0.285709,0.44007 0.193056,0.20424 0.434642,0.33786 0.724065,0.40047 0.07548,0.0163 0.110562,0.0188 0.268718,0.0188 0.202741,0 0.275088,-0.0108 0.438216,-0.0651 0.409578,-0.13651 0.736359,-0.46557 0.871546,-0.87762 0.01804,-0.055 0.03883,-0.13311 0.04622,-0.17363 0.0074,-0.0405 0.01532,-0.0802 0.01763,-0.0882 0.004,-0.0137 0.02758,-0.0144 0.385212,-0.0124 l 0.381,0.002 0.003,0.0207 c 0.0564,0.39304 0.269971,0.73967 0.58787,0.95411 0.155644,0.105 0.317002,0.17433 0.495266,0.2128 0.140131,0.0302 0.399864,0.0309 0.565055,0.002 0.01137,-0.002 0.02711,-0.005 0.03497,-0.006 0.0079,-0.001 0.0166,-0.004 0.01941,-0.007 0.0028,-0.003 0.01,-0.003 0.01587,-9.8e-4 0.0059,0.002 0.01325,1e-4 0.0163,-0.005 0.003,-0.005 0.0087,-0.007 0.01267,-0.005 0.0039,0.002 0.0094,7.9e-4 0.0121,-0.004 0.0027,-0.004 0.01043,-0.006 0.01711,-0.003 0.0067,0.003 0.01214,1.4e-4 0.01214,-0.005 0,-0.006 0.0056,-0.008 0.0124,-0.005 0.0068,0.003 0.0124,7.7e-4 0.0124,-0.004 0,-0.005 0.0056,-0.007 0.0124,-0.004 0.0068,0.003 0.0124,5.3e-4 0.0124,-0.005 0,-0.005 0.0025,-0.007 0.0054,-0.004 0.003,0.003 0.01043,10e-4 0.01654,-0.004 0.0061,-0.005 0.01115,-0.006 0.01122,-0.002 6.6e-5,0.004 0.0029,0.004 0.0062,-10e-4 0.0033,-0.005 0.04328,-0.0263 0.08876,-0.0483 0.226694,-0.10978 0.446482,-0.31076 0.579066,-0.52952 0.03571,-0.0589 0.106724,-0.21003 0.124788,-0.26553 0.01055,-0.0324 0.05242,-0.21429 0.05679,-0.24671 l 0.0054,-0.04 0.642239,0.003 c 0.353231,0.002 0.6469,0.006 0.652597,0.009 0.01458,0.009 -0.0022,0.0388 -0.02217,0.0388 -0.0084,0 -0.01714,0.005 -0.01933,0.0103 -0.0022,0.006 -0.02842,0.023 -0.0583,0.0385 -0.06258,0.0324 -0.0601,0.0115 -0.02148,0.18165 0.02026,0.0893 0.0217,0.10384 0.01126,0.11427 -0.0066,0.007 -0.01196,0.0153 -0.01196,0.0194 0,0.004 -0.0056,0.005 -0.0124,0.003 -0.0068,-0.003 -0.0124,-7.6e-4 -0.0124,0.004 0,0.005 -0.0056,0.007 -0.0124,0.004 -0.0068,-0.003 -0.0124,-3.9e-4 -0.0124,0.005 0,0.006 -0.0064,0.008 -0.01654,0.004 -0.0099,-0.003 -0.01654,-0.001 -0.01654,0.004 0,0.006 -0.0067,0.007 -0.01757,0.004 -0.01287,-0.004 -0.01586,-0.003 -0.01117,0.005 0.0048,0.008 8.73e-4,0.009 -0.0155,0.005 -0.01363,-0.003 -0.02191,-0.002 -0.02191,0.003 0,0.005 -0.0069,0.007 -0.01654,0.004 -0.0099,-0.003 -0.01654,-10e-4 -0.01654,0.004 0,0.006 -0.0066,0.007 -0.01654,0.004 -0.0091,-0.003 -0.01654,-0.002 -0.01654,0.003 0,0.004 -0.02197,0.0121 -0.04881,0.0174 -0.02685,0.005 -0.05239,0.0141 -0.05677,0.0197 -0.0053,0.007 0,0.0435 0.01566,0.10929 0.01299,0.0546 0.02579,0.1141 0.02843,0.13229 0.0026,0.0182 0.0056,0.0387 0.0067,0.0456 0.001,0.007 0.0045,0.0168 0.0077,0.022 0.0032,0.005 0.0034,0.0157 4.77e-4,0.0234 -0.0029,0.008 -0.0015,0.0164 0.0034,0.0194 0.01222,0.008 0.0025,0.0508 -0.01141,0.0508 -0.0063,0 -0.01144,0.003 -0.01144,0.007 0,0.004 -0.008,0.005 -0.01783,0.003 -0.01298,-0.003 -0.01607,-0.002 -0.01137,0.006 0.005,0.008 1.91e-4,0.009 -0.02041,0.005 -0.01984,-0.004 -0.02528,-0.003 -0.02078,0.004 0.0042,0.007 -1.07e-4,0.009 -0.01344,0.008 -0.01074,-10e-4 -0.02511,3.2e-4 -0.03193,0.003 -0.0068,0.003 -0.04343,0.0108 -0.08135,0.0177 -0.03792,0.007 -0.07285,0.0151 -0.07761,0.0181 -0.008,0.005 -0.0045,0.0825 0.0079,0.17661 0.0021,0.0159 0.0045,0.0401 0.0053,0.0537 8.2e-4,0.0136 0.0044,0.0294 0.0079,0.035 0.0035,0.006 0.004,0.0233 9.53e-4,0.0393 -0.003,0.016 -0.0022,0.0291 0.0017,0.0291 0.0039,0 0.0071,0.0285 0.0071,0.0632 0,0.0558 -0.002,0.064 -0.01654,0.0692 l -0.01654,0.006 0.01654,0.005 c 0.0091,0.002 -0.0086,0.002 -0.03927,-3e-5 -0.03419,-0.003 -0.05581,-10e-4 -0.05581,0.004 0,0.005 -0.04146,0.009 -0.101285,0.01 -0.125317,0.002 -0.136381,0.005 -0.141671,0.0326 -0.0023,0.0121 -0.0087,0.11048 -0.01426,0.21868 -0.0056,0.10955 -0.01311,0.19198 -0.01688,0.18603 -0.0052,-0.008 -0.0068,-0.008 -0.0069,-3.4e-4 -6.6e-5,0.006 -0.0088,0.0103 -0.01942,0.0103 -0.01061,0 -0.02212,0.003 -0.02559,0.006 -0.0035,0.003 -0.03478,0.007 -0.06959,0.008 -0.03481,7.7e-4 -0.117778,0.004 -0.184367,0.007 l -0.121073,0.006 -0.08284,0.0777 c -0.04557,0.0427 -0.08651,0.0777 -0.09098,0.0777 -0.0045,0 -0.03123,0.026 -0.05945,0.0579 -0.02822,0.0318 -0.05581,0.0579 -0.06131,0.0579 -0.0055,0 -0.01825,0.0112 -0.02833,0.0248 -0.0179,0.0242 -0.04265,0.0335 -0.04265,0.0161 0,-0.005 -0.0033,-0.007 -0.0074,-0.004 -0.0041,0.003 -0.0095,-9.3e-4 -0.01209,-0.008 -0.0027,-0.007 -0.01015,-0.0101 -0.01774,-0.007 -0.0072,0.003 -0.01197,0.002 -0.01065,-0.002 0.0013,-0.004 -0.0013,-0.008 -0.0059,-0.01 -0.0045,-0.001 -0.01129,-0.008 -0.01498,-0.0146 -0.0037,-0.007 -0.0102,-0.01 -0.01447,-0.007 -0.0043,0.003 -0.0078,6.3e-4 -0.0078,-0.004 0,-0.005 -0.0037,-0.007 -0.0083,-0.004 -0.0046,0.003 -0.01055,-6.6e-4 -0.01327,-0.008 -0.0027,-0.007 -0.0083,-0.0108 -0.0124,-0.008 -0.0041,0.003 -0.0097,-10e-4 -0.0124,-0.008 -0.0027,-0.007 -0.0083,-0.0108 -0.0124,-0.008 -0.0041,0.003 -0.0097,-0.001 -0.0124,-0.008 -0.0027,-0.007 -0.0083,-0.0108 -0.0124,-0.008 -0.0041,0.003 -0.0097,-10e-4 -0.0124,-0.008 -0.0027,-0.007 -0.008,-0.011 -0.01183,-0.009 -0.0038,0.002 -0.01025,-0.002 -0.01435,-0.009 -0.0041,-0.007 -0.01023,-0.0125 -0.01362,-0.0116 -0.0034,9.6e-4 -0.03034,-0.0156 -0.05988,-0.0369 -0.0369,-0.0265 -0.05674,-0.0361 -0.06337,-0.0307 -0.0053,0.004 -0.01895,0.008 -0.03032,0.009 -0.01137,3.1e-4 -0.03555,0.003 -0.05374,0.005 -0.01819,0.003 -0.04266,0.006 -0.05438,0.007 -0.01172,0.001 -0.02588,0.005 -0.03148,0.009 -0.0056,0.003 -0.01903,0.004 -0.02987,10e-4 -0.01083,-0.003 -0.02214,-9.8e-4 -0.02512,0.004 -0.0031,0.005 -0.01555,0.007 -0.02866,0.004 -0.01278,-0.003 -0.02532,-0.002 -0.02788,0.002 -0.0079,0.0128 -0.131452,10e-4 -0.148685,-0.0138 -0.0084,-0.007 -0.01774,-0.0135 -0.02067,-0.0135 -0.0029,0 -0.0044,-0.003 -0.0034,-0.006 0.0011,-0.003 -0.01456,-0.0197 -0.03475,-0.0366 -0.02019,-0.0169 -0.03506,-0.0334 -0.03305,-0.0366 0.002,-0.003 -0.0093,-0.0158 -0.02509,-0.0279 -0.01581,-0.0121 -0.02818,-0.0246 -0.02748,-0.0278 6.88e-4,-0.003 -0.02459,-0.0331 -0.05617,-0.0663 l -0.05743,-0.0604 -0.103103,0.0218 c -0.05671,0.012 -0.112404,0.0229 -0.123773,0.0243 -0.01137,0.001 -0.027,0.005 -0.03474,0.008 -0.0077,0.003 -0.01772,0.004 -0.02217,8.5e-4 -0.0045,-0.003 -0.01062,-9.3e-4 -0.0137,0.004 -0.0031,0.005 -0.0145,0.007 -0.02538,0.004 -0.01134,-0.003 -0.01977,-0.001 -0.01977,0.004 0,0.005 -0.0086,0.006 -0.02067,0.003 -0.01137,-0.003 -0.02067,-0.002 -0.02067,0.003 0,0.0133 -0.09389,10e-4 -0.105117,-0.0134 -0.0056,-0.007 -0.01023,-0.01 -0.01037,-0.005 -1.45e-4,0.004 -0.0061,-2.9e-4 -0.01323,-0.0105 -0.0071,-0.0102 -0.01584,-0.0167 -0.01935,-0.0146 -0.0035,0.002 -0.01461,-0.007 -0.02466,-0.0208 -0.01005,-0.0136 -0.02139,-0.0228 -0.02521,-0.0204 -0.0038,0.002 -0.0131,-0.005 -0.02062,-0.0166 -0.0075,-0.0115 -0.01694,-0.0188 -0.02094,-0.0164 -0.004,0.002 -0.01528,-0.007 -0.02508,-0.0205 -0.0098,-0.0138 -0.02095,-0.0231 -0.02481,-0.0207 -0.0039,0.002 -0.01501,-0.007 -0.0248,-0.0207 -0.0098,-0.0138 -0.02081,-0.0231 -0.0245,-0.0209 -0.0037,0.002 -0.01177,-0.002 -0.01797,-0.01 -0.01663,-0.0202 -0.07414,-0.0605 -0.0863,-0.0605 -0.0058,0 -0.05175,0.028 -0.102112,0.0623 -0.05037,0.0343 -0.09158,0.0605 -0.09158,0.0583 0,-0.002 -0.0098,0.005 -0.02171,0.0161 -0.01194,0.0111 -0.02478,0.0182 -0.02852,0.0159 -0.0037,-0.002 -0.01091,0.003 -0.01591,0.0128 -0.005,0.009 -0.01224,0.0151 -0.01608,0.0127 -0.0038,-0.002 -0.0092,10e-4 -0.01193,0.009 -0.0027,0.007 -0.0083,0.0108 -0.0124,0.008 -0.0041,-0.003 -0.0098,10e-4 -0.01266,0.009 -0.0029,0.007 -0.0075,0.0112 -0.01038,0.008 -0.0029,-0.003 -0.0094,5.6e-4 -0.0145,0.008 -0.0082,0.0112 -0.01301,0.0102 -0.04009,-0.008 -0.01693,-0.0115 -0.03089,-0.0182 -0.03103,-0.0149 -1.39e-4,0.003 -0.0041,-6.3e-4 -0.0088,-0.009 -0.0047,-0.008 -0.01183,-0.0126 -0.01587,-0.0101 -0.004,0.002 -0.01136,-0.003 -0.01628,-0.0121 -0.0049,-0.009 -0.01188,-0.0158 -0.01549,-0.0147 -0.0036,0.001 -0.05932,-0.0389 -0.123804,-0.089 -0.06449,-0.05 -0.122874,-0.0922 -0.129749,-0.0936 -0.0069,-10e-4 -0.06724,0.0264 -0.134134,0.062 -0.0669,0.0356 -0.124512,0.0638 -0.128032,0.0626 -0.0035,-10e-4 -0.0064,0.002 -0.0064,0.007 0,0.005 -0.0037,0.006 -0.0083,0.004 -0.0045,-0.003 -0.0083,-9.5e-4 -0.0083,0.004 0,0.005 -0.0037,0.007 -0.0083,0.004 -0.0045,-0.003 -0.0083,-5.5e-4 -0.0083,0.005 0,0.006 -0.0024,0.008 -0.0054,0.005 -0.003,-0.003 -0.0097,5.8e-4 -0.01507,0.008 -0.0053,0.007 -0.01919,0.0143 -0.0308,0.0156 -0.01161,10e-4 -0.02985,0.007 -0.04054,0.0127 -0.02806,0.015 -0.07357,0.0241 -0.07357,0.0147 0,-0.004 -0.0037,-0.006 -0.0083,-0.003 -0.0045,0.003 -0.0083,9.6e-4 -0.0083,-0.004 0,-0.005 -0.0037,-0.007 -0.0083,-0.004 -0.0045,0.003 -0.0083,9.5e-4 -0.0083,-0.004 0,-0.005 -0.0037,-0.007 -0.0083,-0.004 -0.0045,0.003 -0.0083,9.5e-4 -0.0083,-0.004 0,-0.005 -0.0037,-0.007 -0.0083,-0.004 -0.0045,0.003 -0.0083,9.5e-4 -0.0083,-0.004 0,-0.005 -0.0037,-0.007 -0.0083,-0.004 -0.0045,0.003 -0.0083,5.5e-4 -0.0083,-0.005 0,-0.006 -0.0022,-0.008 -0.005,-0.005 -0.0027,0.003 -0.06166,-0.0245 -0.130913,-0.0606 -0.06925,-0.0361 -0.131463,-0.0656 -0.138241,-0.0656 -0.0068,0 -0.05577,0.0412 -0.108865,0.0917 -0.0531,0.0504 -0.09654,0.0889 -0.09654,0.0856 0,-0.003 -0.01954,0.0123 -0.04341,0.0347 -0.02387,0.0224 -0.05674,0.0508 -0.07304,0.0632 -0.03254,0.0246 -0.07706,0.0372 -0.08513,0.0241 -0.0028,-0.005 -0.01216,-0.006 -0.02074,-0.004 -0.0086,0.002 -0.0181,2e-5 -0.02117,-0.005 -0.0031,-0.005 -0.01457,-0.007 -0.02574,-0.004 -0.01244,0.003 -0.02016,10e-4 -0.02016,-0.004 0,-0.006 -0.0078,-0.007 -0.02067,-0.004 -0.01356,0.003 -0.02067,0.002 -0.02067,-0.005 0,-0.007 -0.0071,-0.008 -0.02016,-0.005 -0.01109,0.003 -0.02248,0.001 -0.02531,-0.003 -0.0028,-0.005 -0.01422,-0.006 -0.02531,-0.003 -0.01244,0.003 -0.02016,10e-4 -0.02016,-0.004 0,-0.006 -0.0078,-0.007 -0.02067,-0.004 -0.01356,0.003 -0.02067,0.002 -0.02067,-0.005 0,-0.006 -0.007,-0.008 -0.0186,-0.005 -0.01023,0.003 -0.03305,0.001 -0.05071,-0.003 -0.01817,-0.004 -0.04028,-0.004 -0.05093,-10e-5 -0.01036,0.004 -0.04219,0.0378 -0.07074,0.0753 -0.02855,0.0375 -0.05958,0.0759 -0.06896,0.0852 -0.0094,0.009 -0.01705,0.0197 -0.01705,0.0229 0,0.003 -0.0074,0.0113 -0.01654,0.0179 -0.0091,0.007 -0.01654,0.0156 -0.01654,0.0198 0,0.004 -0.01225,0.018 -0.02722,0.0306 -0.01497,0.0126 -0.02541,0.0247 -0.0232,0.0269 0.0022,0.002 -0.006,0.0124 -0.01825,0.0225 -0.02326,0.0193 -0.04882,0.0239 -0.06464,0.0114 -0.0051,-0.004 -0.01534,-0.005 -0.02274,-0.002 -0.0079,0.003 -0.01345,10e-4 -0.01345,-0.005 0,-0.006 -0.0055,-0.008 -0.01214,-0.005 -0.0067,0.003 -0.01443,9.5e-4 -0.01723,-0.004 -0.0028,-0.005 -0.01222,-0.006 -0.02094,-0.003 -0.0093,0.003 -0.01584,10e-4 -0.01584,-0.004 0,-0.006 -0.0066,-0.007 -0.01654,-0.004 -0.0099,0.003 -0.01654,0.001 -0.01654,-0.004 0,-0.006 -0.0066,-0.007 -0.01654,-0.004 -0.0091,0.003 -0.01654,0.002 -0.01654,-0.003 0,-0.004 -0.0074,-0.006 -0.01654,-0.004 -0.0091,0.002 -0.01654,2.9e-4 -0.01654,-0.005 0,-0.005 -0.0052,-0.007 -0.01156,-0.005 -0.0064,0.002 -0.01406,4e-4 -0.01711,-0.005 -0.003,-0.005 -0.0086,-0.007 -0.01228,-0.005 -0.0037,0.002 -0.02368,-9.3e-4 -0.04439,-0.007 -0.03249,-0.01 -0.03828,-0.01 -0.04224,6.4e-4 -0.0025,0.007 -0.0079,0.01 -0.01205,0.007 -0.0041,-0.003 -0.0097,0.001 -0.0124,0.008 -0.0027,0.007 -0.0087,0.0105 -0.01333,0.008 -0.0046,-0.003 -0.01061,6.1e-4 -0.01333,0.008 -0.0027,0.007 -0.0081,0.0109 -0.01193,0.009 -0.0038,-0.002 -0.01108,0.003 -0.01608,0.0127 -0.005,0.009 -0.01224,0.0151 -0.01608,0.0127 -0.0038,-0.002 -0.0093,0.002 -0.01218,0.009 -0.0029,0.007 -0.0076,0.0112 -0.01046,0.008 -0.0029,-0.003 -0.0105,0.002 -0.01691,0.0114 -0.0064,0.009 -0.01472,0.0147 -0.01848,0.0124 -0.0038,-0.002 -0.0091,0.002 -0.01178,0.009 -0.0027,0.007 -0.0083,0.0108 -0.0124,0.008 -0.0041,-0.003 -0.0097,0.001 -0.0124,0.008 -0.0027,0.007 -0.0087,0.0105 -0.01333,0.008 -0.0046,-0.003 -0.01061,6.1e-4 -0.01333,0.008 -0.0027,0.007 -0.0081,0.0109 -0.01193,0.009 -0.0038,-0.002 -0.01108,0.003 -0.01608,0.0127 -0.005,0.009 -0.01224,0.0151 -0.01608,0.0127 -0.0038,-0.002 -0.0092,0.001 -0.01193,0.009 -0.0027,0.007 -0.0087,0.0105 -0.01333,0.008 -0.0046,-0.003 -0.01038,2e-5 -0.01282,0.006 -0.0024,0.006 -0.0089,0.0119 -0.01441,0.0123 -0.0055,4.2e-4 -0.01742,0.003 -0.02652,0.006 -0.01265,0.004 -0.03354,-0.0108 -0.08892,-0.0621 z"
                style="fill:none;fill-opacity:1;stroke:none;stroke-width:0.003125;stroke-miterlimit:4;stroke-dasharray:none;stroke-opacity:1" />
            <path
                d="m 34.372106,252.83162 c -2.597828,0.003 -4.734209,2.04788 -4.849833,4.64313 l 0.15503,-0.34572 0.286287,-0.25632 0.05999,-0.30707 0.180627,-0.0263 0.05944,-0.494 0.190932,0.0293 0.0991,-0.66924 0.227222,0.20912 0.103566,-0.59391 0.184526,0.23365 0.09631,-0.58132 0.276915,0.31925 0.146813,-0.60213 0.312379,0.32169 0.247215,-0.6078 0.238177,0.35646 0.378403,-0.53712 0.135911,0.45704 0.120172,-0.19354 0.180957,0.47556 0.171799,-0.23887 0.227893,0.67248 0.250956,-0.356 0.180798,0.43001 0.297341,-0.28841 0.179834,0.38254 0.253722,-0.41891 0.224223,0.38068 0.183948,-0.63201 0.142175,0.42596 0.228472,-0.72568 0.167431,0.30845 0.228856,-0.51144 0.203222,0.45356 0.331012,-0.41755 0.135238,0.62115 0.336667,-0.37582 0.07093,0.63901 0.347458,-0.29365 0.140503,0.66188 0.243317,-0.28084 0.16389,0.6162 0.183116,-0.13181 0.130034,0.4485 0.236468,-0.0343 0.0298,0.31795 0.255688,0.0368 0.05691,0.37729 0.235826,0.24674 0.194101,0.55642 c -0.08548,-2.62061 -2.234548,-4.70085 -4.856551,-4.701 h -0.0052 z"
                style="fill:#e3dedb;fill-opacity:1;stroke:#000000;stroke-width:0.1;stroke-miterlimit:4;stroke-dasharray:none;stroke-dashoffset:14.64999962;stroke-opacity:1"
                id="path954" />
        </g>
    </g>
</svg>
